<svg id="visual" viewBox="0 0 960 300" width="960" height="300" xmlns="http://www.w3.org/2000/svg" xmlns:xlink="http://www.w3.org/1999/xlink" version="1.1"><rect x="0" y="0" width="960" height="300" fill="#202731"></rect><path d="M0 117L22.8 114.2C45.7 111.3 91.3 105.7 137 107.5C182.7 109.3 228.3 118.7 274 123.3C319.7 128 365.3 128 411.2 129.7C457 131.3 503 134.7 548.8 129.8C594.7 125 640.3 112 686 111.8C731.7 111.7 777.3 124.3 823 126.7C868.7 129 914.3 121 937.2 117L960 113L960 0L937.2 0C914.3 0 868.7 0 823 0C777.3 0 731.7 0 686 0C640.3 0 594.7 0 548.8 0C503 0 457 0 411.2 0C365.3 0 319.7 0 274 0C228.3 0 182.7 0 137 0C91.3 0 45.7 0 22.8 0L0 0Z" fill="#fa7268"></path><path d="M0 125L22.8 120.3C45.7 115.7 91.3 106.3 137 101C182.7 95.7 228.3 94.3 274 96.5C319.7 98.7 365.3 104.3 411.2 103.5C457 102.7 503 95.3 548.8 94.5C594.7 93.7 640.3 99.3 686 99.7C731.7 100 777.3 95 823 95C868.7 95 914.3 100 937.2 102.5L960 105L960 0L937.2 0C914.3 0 868.7 0 823 0C777.3 0 731.7 0 686 0C640.3 0 594.7 0 548.8 0C503 0 457 0 411.2 0C365.3 0 319.7 0 274 0C228.3 0 182.7 0 137 0C91.3 0 45.7 0 22.8 0L0 0Z" fill="#f5685d"></path><path d="M0 102L22.8 101.3C45.7 100.7 91.3 99.3 137 93.7C182.7 88 228.3 78 274 77C319.7 76 365.3 84 411.2 90C457 96 503 100 548.8 95.7C594.7 91.3 640.3 78.7 686 72.2C731.7 65.7 777.3 65.3 823 66.8C868.7 68.3 914.3 71.7 937.2 73.3L960 75L960 0L937.2 0C914.3 0 868.7 0 823 0C777.3 0 731.7 0 686 0C640.3 0 594.7 0 548.8 0C503 0 457 0 411.2 0C365.3 0 319.7 0 274 0C228.3 0 182.7 0 137 0C91.3 0 45.7 0 22.8 0L0 0Z" fill="#ef5e52"></path><path d="M0 45L22.8 47.8C45.7 50.7 91.3 56.3 137 60C182.7 63.7 228.3 65.3 274 63.7C319.7 62 365.3 57 411.2 56.3C457 55.7 503 59.3 548.8 60.8C594.7 62.3 640.3 61.7 686 62.7C731.7 63.7 777.3 66.3 823 64.5C868.7 62.7 914.3 56.3 937.2 53.2L960 50L960 0L937.2 0C914.3 0 868.7 0 823 0C777.3 0 731.7 0 686 0C640.3 0 594.7 0 548.8 0C503 0 457 0 411.2 0C365.3 0 319.7 0 274 0C228.3 0 182.7 0 137 0C91.3 0 45.7 0 22.8 0L0 0Z" fill="#e95447"></path><path d="M0 29L22.8 31C45.7 33 91.3 37 137 38.7C182.7 40.3 228.3 39.7 274 38.2C319.7 36.7 365.3 34.3 411.2 37.7C457 41 503 50 548.8 52.8C594.7 55.7 640.3 52.3 686 50.3C731.7 48.3 777.3 47.7 823 49C868.7 50.3 914.3 53.7 937.2 55.3L960 57L960 0L937.2 0C914.3 0 868.7 0 823 0C777.3 0 731.7 0 686 0C640.3 0 594.7 0 548.8 0C503 0 457 0 411.2 0C365.3 0 319.7 0 274 0C228.3 0 182.7 0 137 0C91.3 0 45.7 0 22.8 0L0 0Z" fill="#e34a3c"></path><path d="M0 37L22.8 34.2C45.7 31.3 91.3 25.7 137 22.2C182.7 18.7 228.3 17.3 274 19C319.7 20.7 365.3 25.3 411.2 24.8C457 24.3 503 18.7 548.8 16C594.7 13.3 640.3 13.7 686 17.5C731.7 21.3 777.3 28.7 823 29.7C868.7 30.7 914.3 25.3 937.2 22.7L960 20L960 0L937.2 0C914.3 0 868.7 0 823 0C777.3 0 731.7 0 686 0C640.3 0 594.7 0 548.8 0C503 0 457 0 411.2 0C365.3 0 319.7 0 274 0C228.3 0 182.7 0 137 0C91.3 0 45.7 0 22.8 0L0 0Z" fill="#dd3f31"></path></svg>